<?xml version="1.0" encoding="utf-8"?>
<!-- Generator: Adobe Illustrator 24.1.0, SVG Export Plug-In . SVG Version: 6.00 Build 0)  -->
<svg version="1.1" id="art" xmlns="http://www.w3.org/2000/svg" xmlns:xlink="http://www.w3.org/1999/xlink" x="0px" y="0px"
	 viewBox="0 0 237.6 201.6" style="enable-background:new 0 0 237.6 201.6;" xml:space="preserve">
<style type="text/css">
	.st0{fill:#021E73;}
	.st1{fill:#0048B9;}
	.st2{fill:#F2F2F2;}
	.st3{fill:#000333;}
	.st4{fill:none;stroke:#F2F2F2;stroke-width:1.1178;stroke-miterlimit:10;}
	.st5{fill:#5A6B8C;}
	.st6{fill:#D0D2D3;}
	.st7{fill:#FFFFFF;}
	.st8{fill:none;stroke:#404041;stroke-width:2;stroke-miterlimit:10;}
</style>
<g>
	<rect x="43.2" y="21.5" class="st0" width="21.3" height="177.8"/>
	<rect x="64.5" y="21.5" class="st1" width="129.9" height="19.2"/>
	<rect x="64.5" y="40.7" class="st2" width="129.9" height="158.6"/>
	<circle class="st2" cx="53.9" cy="35.8" r="5.7"/>
	<path class="st2" d="M47.2,59c0.2,0,13.3,0,13.3,0l-6.7-12.5L47.2,59z"/>
	<path class="st3" d="M184.6,125.5l-2.3,1.3l2.6,4.6c0.1,0.2,0,0.6-0.2,0.7l-1.5,0.9c-0.2,0.1-0.6,0-0.7-0.2l-2.6-4.6l-2.3,1.3
		c-0.3,0.2-0.7,0-0.7-0.4l-0.2-8.5c0-0.3,0.4-0.6,0.7-0.4l7.2,4.6C184.9,124.9,184.9,125.3,184.6,125.5z"/>
	<rect x="47.2" y="64.7" class="st2" width="13.5" height="13.5"/>
	<g>
		<line class="st4" x1="47.2" y1="83.8" x2="60.6" y2="83.8"/>
		<line class="st4" x1="47.2" y1="86.8" x2="60.6" y2="86.8"/>
		<line class="st4" x1="47.2" y1="90" x2="60.6" y2="90"/>
	</g>
	
		<rect x="47.5" y="97.9" transform="matrix(0.6634 -0.7483 0.7483 0.6634 -56.9644 74.1115)" class="st2" width="12.9" height="4.9"/>
	<polygon class="st2" points="51.5,106.9 46.8,108.2 47.8,103.5 	"/>
	<rect x="89" y="65.9" class="st5" width="80.9" height="18.1"/>
	<g>
		<rect x="89" y="84.1" class="st6" width="80.9" height="115.2"/>
	</g>
	<g>
		<g>
			<path class="st7" d="M116.2,33.2v-5.6h1.5c0.6,0,1,0.1,1.2,0.3c0.3,0.2,0.4,0.6,0.4,1c0,0.6-0.2,1-0.8,1.2
				c0.4,0.1,0.7,0.2,0.9,0.4c0.2,0.2,0.3,0.6,0.3,0.9c0,0.3-0.1,0.6-0.2,0.8s-0.3,0.4-0.6,0.6s-0.6,0.2-0.9,0.2h-1.9V33.2z
				 M117.1,30h0.3c0.3,0,0.6-0.1,0.8-0.2s0.2-0.3,0.2-0.6s-0.1-0.4-0.2-0.6s-0.4-0.2-0.8-0.2h-0.3V30z M117.1,32.5h0.7
				c0.3,0,0.7-0.1,0.9-0.2c0.2-0.1,0.3-0.3,0.3-0.7c0-0.3-0.1-0.4-0.3-0.7c-0.2-0.1-0.4-0.2-0.9-0.2h-0.7V32.5z"/>
			<path class="st7" d="M122.3,33.3c-0.7,0-1.2-0.2-1.6-0.6s-0.6-0.9-0.6-1.6v-3.6h0.9V31c0,0.6,0.1,0.9,0.2,1.1s0.4,0.3,0.9,0.3
				s0.7-0.1,0.9-0.3s0.2-0.6,0.2-1.1v-3.4h0.9v3.6c0,0.7-0.2,1.2-0.6,1.6C123.6,33.1,123.1,33.3,122.3,33.3z"/>
			<path class="st7" d="M125.6,33.2v-5.6h0.9v5.6H125.6z"/>
			<path class="st7" d="M127.7,33.2v-5.6h0.9v4.8h2.1v0.8H127.7z"/>
			<path class="st7" d="M131.3,33.2v-5.6h1.5c0.4,0,0.8,0.1,1.1,0.2c0.3,0.1,0.7,0.3,0.9,0.6s0.4,0.6,0.6,0.9s0.2,0.7,0.2,1.1
				c0,0.3-0.1,0.8-0.2,1.1c-0.1,0.3-0.3,0.7-0.6,0.9s-0.6,0.4-0.9,0.6s-0.7,0.2-1.1,0.2H131.3z M132.2,32.4h0.4c0.2,0,0.6,0,0.8-0.1
				s0.4-0.2,0.7-0.4c0.2-0.2,0.3-0.3,0.4-0.7s0.1-0.4,0.1-0.8s0-0.6-0.1-0.8s-0.2-0.4-0.4-0.7c-0.2-0.2-0.3-0.3-0.7-0.4
				c-0.2-0.1-0.4-0.1-0.8-0.1h-0.4V32.4z"/>
			<path class="st7" d="M136.3,33.2v-5.6h3v0.8h-2.1V30h2v0.8h-2v1.6h2.1v0.8h-3V33.2z"/>
			<path class="st7" d="M140.2,33.2v-5.6h1.7c0.3,0,0.7,0.1,1,0.2c0.2,0.1,0.4,0.3,0.7,0.6c0.1,0.2,0.2,0.6,0.2,0.9s0,0.6-0.1,0.8
				s-0.2,0.4-0.4,0.6s-0.4,0.2-0.7,0.3l1.8,2.2h-1.1l-1.7-2.1h-0.3v2.1H140.2z M141.1,30.3h0.6c0.2,0,0.4,0,0.7-0.1
				c0.2-0.1,0.3-0.2,0.4-0.3s0.1-0.3,0.1-0.6c0-0.3-0.1-0.6-0.3-0.7c-0.2-0.1-0.4-0.2-0.9-0.2h-0.6V30.3z"/>
		</g>
	</g>
</g>
<rect x="2.2" y="2.4" class="st8" width="233.2" height="196.9"/>
</svg>
