<?xml version="1.0" encoding="utf-8"?>
<!-- Generator: Adobe Illustrator 24.1.0, SVG Export Plug-In . SVG Version: 6.00 Build 0)  -->
<svg version="1.1" id="art" xmlns="http://www.w3.org/2000/svg" xmlns:xlink="http://www.w3.org/1999/xlink" x="0px" y="0px"
	 viewBox="0 0 237.6 201.6" style="enable-background:new 0 0 237.6 201.6;" xml:space="preserve">
<style type="text/css">
	.st0{fill:#021E73;}
	.st1{fill:#0048B9;}
	.st2{fill:#F2F2F2;}
	.st3{fill:#000333;}
	.st4{fill:none;stroke:#F2F2F2;stroke-width:1.1178;stroke-miterlimit:10;}
	.st5{fill:#5A6B8C;}
	.st6{fill:#D0D2D3;}
	.st7{fill:none;stroke:#404041;stroke-width:6;stroke-miterlimit:10;}
	.st8{fill:#FFFFFF;}
</style>
<rect x="43.2" y="21.5" class="st0" width="21.3" height="177.8"/>
<rect x="64.5" y="21.5" class="st1" width="129.9" height="19.2"/>
<rect x="64.5" y="40.7" class="st2" width="129.9" height="158.6"/>
<circle class="st2" cx="53.9" cy="35.8" r="5.7"/>
<path class="st2" d="M47.2,59c0.2,0,13.3,0,13.3,0l-6.7-12.5L47.2,59z"/>
<path class="st3" d="M184.6,125.5l-2.3,1.3l2.6,4.6c0.1,0.2,0,0.6-0.2,0.7l-1.5,0.9c-0.2,0.1-0.6,0-0.7-0.2l-2.6-4.6l-2.3,1.3
	c-0.3,0.2-0.7,0-0.7-0.4l-0.2-8.5c0-0.3,0.4-0.6,0.7-0.4l7.2,4.6C184.9,124.9,184.9,125.3,184.6,125.5z"/>
<rect x="47.2" y="64.7" class="st2" width="13.5" height="13.5"/>
<g>
	<line class="st4" x1="47.2" y1="83.8" x2="60.6" y2="83.8"/>
	<line class="st4" x1="47.2" y1="86.8" x2="60.6" y2="86.8"/>
	<line class="st4" x1="47.2" y1="90" x2="60.6" y2="90"/>
</g>
<rect x="47.5" y="97.9" transform="matrix(0.6634 -0.7483 0.7483 0.6634 -56.9125 74.1128)" class="st2" width="12.9" height="4.9"/>
<polygon class="st2" points="51.5,106.9 46.8,108.2 47.8,103.5 "/>
<rect x="89" y="65.9" class="st5" width="80.9" height="18.1"/>
<g>
	<rect x="89" y="84.1" class="st6" width="80.9" height="115.2"/>
</g>
<rect x="2.2" y="2.4" class="st7" width="233.2" height="196.9"/>
<g>
	<path class="st8" d="M110.5,27.1c0.5-0.1,1.2-0.2,1.9-0.2c1,0,1.7,0.2,2.2,0.6c0.4,0.3,0.7,0.8,0.7,1.4c0,0.8-0.5,1.5-1.4,1.8v0
		c0.8,0.2,1.7,0.8,1.7,2c0,0.7-0.3,1.2-0.7,1.6c-0.6,0.5-1.5,0.8-2.8,0.8c-0.7,0-1.3,0-1.6-0.1V27.1z M111.5,30.4h0.9
		c1.1,0,1.8-0.6,1.8-1.4c0-0.9-0.7-1.3-1.8-1.3c-0.5,0-0.8,0-0.9,0.1V30.4z M111.5,34.3c0.2,0,0.5,0,0.9,0c1.1,0,2.1-0.4,2.1-1.6
		c0-1.1-0.9-1.6-2.1-1.6h-0.9V34.3z"/>
	<path class="st8" d="M117.4,27v4.8c0,1.8,0.8,2.6,1.9,2.6c1.2,0,2-0.8,2-2.6V27h1.1v4.7c0,2.5-1.3,3.5-3.1,3.5
		c-1.7,0-2.9-0.9-2.9-3.5V27H117.4z"/>
	<path class="st8" d="M124.5,27v8.1h-1V27H124.5z"/>
	<path class="st8" d="M125.6,27h1v7.2h3.5v0.9h-4.5V27z"/>
	<path class="st8" d="M130.6,27.1c0.6-0.1,1.4-0.2,2.2-0.2c1.5,0,2.6,0.3,3.3,1c0.7,0.7,1.1,1.6,1.1,2.9c0,1.3-0.4,2.4-1.2,3.1
		c-0.8,0.8-2,1.2-3.6,1.2c-0.7,0-1.4,0-1.9-0.1V27.1z M131.6,34.3c0.3,0,0.6,0.1,1.1,0.1c2.2,0,3.4-1.2,3.4-3.4
		c0-1.9-1.1-3.1-3.3-3.1c-0.5,0-0.9,0-1.2,0.1V34.3z"/>
	<path class="st8" d="M142.1,31.3H139v2.9h3.5v0.9h-4.5V27h4.4v0.9H139v2.6h3.1V31.3z"/>
	<path class="st8" d="M143.1,27.1c0.5-0.1,1.3-0.2,2-0.2c1.1,0,1.8,0.2,2.3,0.7c0.4,0.4,0.6,0.9,0.6,1.5c0,1.1-0.7,1.8-1.5,2.1v0
		c0.6,0.2,1,0.8,1.2,1.6c0.3,1.1,0.5,1.9,0.6,2.2h-1.1c-0.1-0.2-0.3-0.9-0.5-1.9c-0.2-1.1-0.7-1.5-1.6-1.6h-1v3.5h-1V27.1z
		 M144.2,30.8h1.1c1.1,0,1.8-0.6,1.8-1.5c0-1-0.8-1.5-1.9-1.5c-0.5,0-0.9,0-1,0.1V30.8z"/>
</g>
</svg>
