<svg xmlns="http://www.w3.org/2000/svg" viewBox="0 0 237.6 201.6"><defs><style>.cls-1{fill:#009db9;}.cls-2{fill:#021e73;}.cls-3{fill:#0048b9;}.cls-4{fill:#f2f2f2;}.cls-5{fill:#000333;}.cls-6{fill:none;stroke:#f2f2f2;stroke-miterlimit:10;}.cls-7{fill:#5a6b8c;}.cls-8{fill:#d0d2d3;}.cls-9{fill:#fff;}</style></defs><g id="art"><rect class="cls-1" x="2.2" y="2.37" width="233.21" height="196.87"/><rect class="cls-2" x="51.14" y="40.14" width="19.08" height="159.09"/><rect class="cls-3" x="70.22" y="40.14" width="116.24" height="17.19"/><rect class="cls-4" x="70.22" y="57.33" width="116.24" height="141.9"/><circle class="cls-4" cx="60.68" cy="52.94" r="5.12"/><path class="cls-4" d="M54.73,73.73h11.9L60.68,62.58Z"/><path class="cls-5" d="M177.63,133.16l-2.07,1.17,2.3,4.09a.44.44,0,0,1-.17.6l-1.34.75a.45.45,0,0,1-.61-.16l-2.3-4.09-2.06,1.16a.41.41,0,0,1-.62-.35l-.17-7.62a.42.42,0,0,1,.64-.36l6.42,4.1A.41.41,0,0,1,177.63,133.16Z"/><rect class="cls-4" x="54.65" y="78.77" width="12.06" height="12.06"/><line class="cls-6" x1="54.71" y1="95.87" x2="66.69" y2="95.87"/><line class="cls-6" x1="54.67" y1="98.63" x2="66.65" y2="98.63"/><line class="cls-6" x1="54.67" y1="101.39" x2="66.65" y2="101.39"/><rect class="cls-4" x="54.89" y="108.46" width="11.55" height="4.41" transform="translate(-62.39 82.64) rotate(-48.44)"/><polygon class="cls-4" points="58.48 116.45 54.32 117.7 55.18 113.52 58.48 116.45"/><rect class="cls-7" x="92.12" y="79.93" width="72.44" height="16.17"/><rect class="cls-8" x="92.12" y="96.1" width="72.44" height="103.13"/><path class="cls-9" d="M116.39,50.59v-5h1.28a1.78,1.78,0,0,1,1.12.31,1.12,1.12,0,0,1,.4.93,1.1,1.1,0,0,1-.66,1.1,1.39,1.39,0,0,1,.82.4,1.2,1.2,0,0,1,.28.84,1.3,1.3,0,0,1-.19.73,1.15,1.15,0,0,1-.55.47,2,2,0,0,1-.84.17Zm.78-2.87h.33a1.07,1.07,0,0,0,.69-.19.64.64,0,0,0,.25-.55.63.63,0,0,0-.24-.54,1.1,1.1,0,0,0-.7-.19h-.33Zm0,2.25h.62a1.23,1.23,0,0,0,.76-.2.66.66,0,0,0,.27-.57.7.7,0,0,0-.27-.59,1.21,1.21,0,0,0-.76-.21h-.62Z"/><path class="cls-9" d="M122,50.68a1.82,1.82,0,0,1-1.36-.46,1.91,1.91,0,0,1-.46-1.39V45.64h.79v3a1.64,1.64,0,0,0,.24,1,1.16,1.16,0,0,0,1.58,0,1.57,1.57,0,0,0,.25-1v-3h.78v3.19a2,2,0,0,1-.45,1.39A1.86,1.86,0,0,1,122,50.68Z"/><path class="cls-9" d="M124.78,50.59v-5h.79v5Z"/><path class="cls-9" d="M126.65,50.59v-5h.79V49.9h1.89v.69Z"/><path class="cls-9" d="M129.89,50.59v-5h1.27a2.5,2.5,0,0,1,1.77.71,2.34,2.34,0,0,1,.53.79,2.6,2.6,0,0,1,0,2,2.4,2.4,0,0,1-1.32,1.31,2.45,2.45,0,0,1-1,.19Zm.78-.7h.4a1.74,1.74,0,0,0,.69-.14,1.62,1.62,0,0,0,.55-.37,1.7,1.7,0,0,0,.37-.57,1.78,1.78,0,0,0,.13-.7,1.82,1.82,0,0,0-.13-.7,1.76,1.76,0,0,0-.37-.56,1.64,1.64,0,0,0-.55-.38,1.73,1.73,0,0,0-.69-.13h-.4Z"/><path class="cls-9" d="M134.39,50.59v-5h2.66v.69h-1.88v1.43H137v.69h-1.81V49.9h1.88v.69Z"/><path class="cls-9" d="M137.93,50.59v-5h1.54a2.06,2.06,0,0,1,.86.17,1.27,1.27,0,0,1,.57.5,1.43,1.43,0,0,1,.21.79,1.51,1.51,0,0,1-.15.68,1.24,1.24,0,0,1-.41.5,1.78,1.78,0,0,1-.64.28l1.63,2h-1l-1.49-2h-.35v2Zm.78-2.61h.53a1.37,1.37,0,0,0,.56-.1.77.77,0,0,0,.36-.3.86.86,0,0,0,.13-.46.78.78,0,0,0-.28-.63,1.18,1.18,0,0,0-.77-.22h-.53Z"/></g></svg>