<?xml version="1.0" encoding="utf-8"?>
<!-- Generator: Adobe Illustrator 24.0.1, SVG Export Plug-In . SVG Version: 6.00 Build 0)  -->
<svg version="1.1" id="Layer_1" xmlns="http://www.w3.org/2000/svg" xmlns:xlink="http://www.w3.org/1999/xlink" x="0px" y="0px"
	 viewBox="0 0 256 256" style="enable-background:new 0 0 256 256;" xml:space="preserve">
<style type="text/css">
	.st0{fill:#231F20;}
	.st1{fill:#FFFFFF;}
</style>
<path class="st0" d="M21.7,1h212.6c11.4,0,20.7,9.3,20.7,20.7v212.6c0,11.4-9.3,20.7-20.7,20.7H21.7C10.3,255,1,245.7,1,234.3V21.7
	C1,10.3,10.3,1,21.7,1z"/>
<path class="st1" d="M213,76h-25.5c-3.6,0-5.9,0.7-7,2.5s-1.5,4.6-1.5,8.7V102h34.5l-4.7,26H179v81h-35v-81h-16v-26h16V84.3
	c0-12.2,3-21.6,8.9-27.8s15.6-9.5,28.8-9.5H213V76z"/>
</svg>
