<?xml version="1.0" encoding="utf-8"?>
<!-- Generator: Adobe Illustrator 24.1.0, SVG Export Plug-In . SVG Version: 6.00 Build 0)  -->
<svg version="1.1" id="Layer_1" xmlns="http://www.w3.org/2000/svg" xmlns:xlink="http://www.w3.org/1999/xlink" x="0px" y="0px"
	 viewBox="0 0 256 256" style="enable-background:new 0 0 256 256;" xml:space="preserve">
<style type="text/css">
	.st0{fill:#021E73;}
	.st1{fill:#FFFFFF;}
</style>
<path class="st0" d="M21.7,1h212.6c11.4,0,20.7,9.3,20.7,20.7v212.6c0,11.4-9.3,20.7-20.7,20.7H21.7C10.3,255,1,245.7,1,234.3V21.7
	C1,10.3,10.3,1,21.7,1z"/>
<path class="st1" d="M128,54.9c23.8,0,26.6,0.1,36,0.6s13.4,1.8,16.6,3c7.7,3.1,13.8,9.2,16.9,16.9c1.2,3.2,2.6,7.9,3,16.6
	s0.6,12.2,0.6,36s-0.1,26.6-0.6,36s-1.8,13.4-3,16.6c-3.1,7.7-9.2,13.8-16.9,16.9c-3.2,1.2-7.9,2.6-16.6,3s-12.2,0.6-36,0.6
	s-26.6-0.1-36-0.6s-13.4-1.8-16.6-3c-7.7-3.1-13.8-9.2-16.9-16.9c-1.2-3.2-2.6-7.9-3-16.6s-0.6-12.2-0.6-36s0.1-26.6,0.6-36
	s1.8-13.4,3-16.6c3.1-7.7,9.2-13.8,16.9-16.9c3.2-1.2,7.9-2.6,16.6-3S104.2,54.9,128,54.9 M128,38.9c-24.2,0-27.2,0.1-36.7,0.5
	c-7.4,0.2-14.8,1.6-21.7,4.2c-12,4.5-21.5,14-26,26c-2.6,6.9-4,14.3-4.2,21.7c-0.4,9.5-0.5,12.5-0.5,36.7s0.1,27.2,0.5,36.7
	c0.2,7.4,1.6,14.8,4.2,21.7c4.5,12,14,21.5,26,26c6.9,2.6,14.3,4,21.7,4.2c9.5,0.4,12.5,0.5,36.7,0.5s27.2-0.1,36.7-0.5
	c7.4-0.2,14.8-1.6,21.7-4.2c12-4.5,21.5-14,26-26c2.6-6.9,4-14.3,4.2-21.7c0.4-9.5,0.5-12.5,0.5-36.7s-0.1-27.2-0.5-36.7
	c-0.2-7.4-1.6-14.8-4.2-21.7c-4.5-12-14-21.5-26-26c-6.9-2.6-14.3-4-21.7-4.2C155.2,39,152.2,38.9,128,38.9z"/>
<path class="st1" d="M128,82.2c-25.3,0-45.8,20.5-45.8,45.8s20.5,45.8,45.8,45.8s45.8-20.5,45.8-45.8S153.3,82.2,128,82.2
	C128,82.2,128,82.2,128,82.2z M128,157.7c-16.4,0-29.7-13.3-29.7-29.7s13.3-29.7,29.7-29.7s29.7,13.3,29.7,29.7v0
	C157.7,144.4,144.4,157.7,128,157.7z"/>
<circle class="st1" cx="175.6" cy="80.4" r="10.7"/>
</svg>
