<?xml version="1.0" encoding="utf-8"?>
<!-- Generator: Adobe Illustrator 24.1.0, SVG Export Plug-In . SVG Version: 6.00 Build 0)  -->
<svg version="1.1" id="art" xmlns="http://www.w3.org/2000/svg" xmlns:xlink="http://www.w3.org/1999/xlink" x="0px" y="0px"
	 viewBox="0 0 216 360" style="enable-background:new 0 0 216 360;" xml:space="preserve">
<style type="text/css">
	.st0{opacity:0.5;fill:#5A6B8C;}
	.st1{opacity:0.15;fill:#231F20;}
	.st2{fill:none;stroke:#231F20;stroke-width:0.25;stroke-miterlimit:10;}
	.st3{fill:none;stroke:#231F20;stroke-width:0.2502;stroke-miterlimit:10;}
	.st4{fill:#6D6E70;stroke:#231F20;stroke-width:0.25;stroke-miterlimit:10;}
	.st5{fill:#404041;stroke:#231F20;stroke-width:0.25;stroke-miterlimit:10;}
	.st6{fill:#231F20;}
	.st7{fill:#E6E7E8;}
	.st8{fill:#6D6E70;stroke:#231F20;stroke-width:0.2913;stroke-miterlimit:10;}
	.st9{opacity:0.6;fill:#929497;}
	.st10{fill:#0048B9;}
	.st11{fill:#FFFFFF;}
	.st12{fill:#009DB9;}
	.st13{fill:#021E73;}
	.st14{fill:#F2F2F2;}
	.st15{fill:#000333;}
	.st16{fill:none;stroke:#F2F2F2;stroke-miterlimit:10;}
	.st17{fill:#5A6B8C;}
	.st18{fill:#D0D2D3;}
	.st19{fill:#010440;}
	.st20{fill:#193773;}
	.st21{fill:none;stroke:#231F20;stroke-width:0.5515;stroke-linecap:round;stroke-miterlimit:10;}
	.st22{fill:none;stroke:#231F20;stroke-width:0.7106;stroke-linecap:round;stroke-miterlimit:10;}
	.st23{fill:none;stroke:#231F20;stroke-width:3.3088;stroke-linecap:round;stroke-miterlimit:10;}
	.st24{fill:none;stroke:#231F20;stroke-width:0.2757;stroke-linecap:round;stroke-miterlimit:10;}
	.st25{fill:none;stroke:#231F20;stroke-linecap:round;stroke-miterlimit:10;}
	.st26{fill:none;stroke:#021E73;stroke-width:3;stroke-linecap:round;stroke-miterlimit:10;}
	.st27{fill:#FFFFFF;stroke:#231F20;stroke-width:0.5438;stroke-miterlimit:10;}
	.st28{fill:none;stroke:#231F20;stroke-width:0.5438;stroke-miterlimit:10;}
	.st29{fill:none;stroke:#231F20;stroke-width:1.2057;stroke-linecap:round;stroke-miterlimit:10;}
	.st30{fill:none;stroke:#231F20;stroke-width:1.2057;stroke-miterlimit:10;}
</style>
<g>
	<rect x="7.2" y="57.6" class="st12" width="201.5" height="244.8"/>
	<rect x="7.2" y="9.2" class="st13" width="201.5" height="48.4"/>
	<rect x="7.2" y="302.4" class="st14" width="201.5" height="48.4"/>
	<path class="st27" d="M185.3,101.9H91.7c-6.1,0-11-4.9-11-11v-2.4c0-6.1,4.9-11,11-11h93.6c6.1,0,11,4.9,11,11V91
		C196.3,97,191.4,101.9,185.3,101.9z"/>
	<path class="st27" d="M127.5,146.3H33.9c-6.1,0-11-4.9-11-11v-2.4c0-6.1,4.9-11,11-11h93.6c6.1,0,11,4.9,11,11v2.4
		C138.5,141.3,133.6,146.3,127.5,146.3z"/>
	<path class="st27" d="M185.3,189.9H91.7c-6.1,0-11-4.9-11-11v-2.4c0-6.1,4.9-11,11-11h93.6c6.1,0,11,4.9,11,11v2.4
		C196.3,185,191.4,189.9,185.3,189.9z"/>
	<path class="st27" d="M127.5,237H33.9c-6.1,0-11-4.9-11-11v-2.4c0-6.1,4.9-11,11-11h93.6c6.1,0,11,4.9,11,11v2.4
		C138.5,232.1,133.6,237,127.5,237z"/>
	<path class="st27" d="M185.3,281.9H91.7c-6.1,0-11-4.9-11-11v-2.4c0-6.1,4.9-11,11-11h93.6c6.1,0,11,4.9,11,11v2.4
		C196.3,277,191.4,281.9,185.3,281.9z"/>
	<polygon class="st19" points="183.2,320.6 183.2,333.5 197.2,327.9 	"/>
	<line class="st28" x1="30.6" y1="333.5" x2="168.9" y2="333.5"/>
</g>
</svg>
