<svg xmlns="http://www.w3.org/2000/svg" viewBox="0 0 273.6 302.4"><defs><style>.cls-1,.cls-4{fill:#231f20;}.cls-1{opacity:0.15;}.cls-2,.cls-6{fill:#6d6e70;}.cls-2,.cls-3,.cls-6{stroke:#231f20;stroke-miterlimit:10;}.cls-2,.cls-3{stroke-width:0.25px;}.cls-3{fill:#404041;}.cls-5{fill:#e6e7e8;}.cls-6{stroke-width:0.29px;}.cls-7{fill:#929497;opacity:0.6;}.cls-8{fill:#0048b9;}.cls-9{fill:#fff;}.cls-10{fill:#009db9;}</style></defs><g id="art"><ellipse class="cls-1" cx="119.81" cy="283.12" rx="107.29" ry="6.51"/><path class="cls-2" d="M53.34,48.79H55a0,0,0,0,1,0,0V61.18a0,0,0,0,1,0,0h-1.7a2.06,2.06,0,0,1-2.06-2.06V50.85A2.06,2.06,0,0,1,53.34,48.79Z"/><path class="cls-2" d="M53.34,68.65H55a0,0,0,0,1,0,0V86.74a0,0,0,0,1,0,0h-1.7a2.06,2.06,0,0,1-2.06-2.06v-14A2.06,2.06,0,0,1,53.34,68.65Z"/><path class="cls-2" d="M53.55,91.31h1.7a0,0,0,0,1,0,0V110.8a0,0,0,0,1,0,0h-1.7a2.06,2.06,0,0,1-2.06-2.06V93.36A2.06,2.06,0,0,1,53.55,91.31Z"/><rect class="cls-3" x="53.16" y="12.77" width="128.38" height="270.35" rx="21.67"/><rect class="cls-4" x="57.92" y="19.33" width="118.38" height="256.78" rx="11.39"/><path class="cls-5" d="M173.64,33.83V261A10.91,10.91,0,0,1,163,272.15H72.74A10.91,10.91,0,0,1,62,261V33.83a10.91,10.91,0,0,1,10.7-11.11H86.51v2.91a6.53,6.53,0,0,0,6.41,6.65h48.64a6.53,6.53,0,0,0,6.4-6.65V22.72h15A10.9,10.9,0,0,1,173.64,33.83Z"/><ellipse class="cls-6" cx="129.36" cy="25.77" rx="2.01" ry="2.09"/><rect class="cls-6" x="110.24" y="24.29" width="13.34" height="2.05" rx="0.75"/><path class="cls-7" d="M89.48,68.65a7,7,0,0,0-7,7v48.44a7,7,0,0,0,7,7H136.9l6.18,13.8,18.65-13.8h11.91V68.65Z"/><path class="cls-8" d="M261.08,66v48.44a7,7,0,0,1-7,7H152.67L134,135.25l-6.18-13.8H80.42a7,7,0,0,1-7-7V66a7,7,0,0,1,7-7H254A7,7,0,0,1,261.08,66Z"/><rect class="cls-9" x="87.28" y="83.05" width="115.44" height="4.18"/><rect class="cls-9" x="87.28" y="91.02" width="115.44" height="4.18"/><rect class="cls-9" x="87.28" y="98.99" width="115.44" height="4.18"/><rect class="cls-9" x="114.3" y="106.96" width="88.41" height="4.18"/><path class="cls-9" d="M212.5,87.18a2.28,2.28,0,0,1-.87-.16,2.08,2.08,0,0,1-.7-.46,2,2,0,0,1-.47-.68,2.16,2.16,0,0,1,0-1.68,2,2,0,0,1,.47-.68,2.05,2.05,0,0,1,.7-.45,2.24,2.24,0,0,1,.86-.17,2.48,2.48,0,0,1,.73.11,2.12,2.12,0,0,1,.6.31l-.23.42a1.57,1.57,0,0,0-.48-.25,1.9,1.9,0,0,0-.58-.09,1.68,1.68,0,0,0-.68.13,1.58,1.58,0,0,0-.53.35,1.45,1.45,0,0,0-.35.52,1.7,1.7,0,0,0-.13.64,1.75,1.75,0,0,0,.13.65,1.64,1.64,0,0,0,.35.52,1.75,1.75,0,0,0,.53.35,1.87,1.87,0,0,0,.68.12,1.9,1.9,0,0,0,.58-.09,1.57,1.57,0,0,0,.48-.25l.23.43a2.51,2.51,0,0,1-.59.3A2.48,2.48,0,0,1,212.5,87.18Z"/><path class="cls-9" d="M214.39,87.1V83h.51v1.83h2V83h.51V87.1h-.51V85.26h-2V87.1Z"/><path class="cls-9" d="M218,87.1,219.67,83h.48l1.63,4.12h-.55l-.46-1.2h-1.72l-.46,1.2Zm1.18-1.65h1.38l-.69-1.8Z"/><path class="cls-9" d="M222.91,87.1V83.43h-1.19V83h2.9v.45h-1.2V87.1Z"/><path class="cls-9" d="M226.08,87.1V83.43h-1.19V83h2.9v.45h-1.2V87.1Z"/><path class="cls-9" d="M228.4,87.1V83h2.14v.44h-1.63v1.39h1.57v.45h-1.57v1.39h1.63v.45Z"/><path class="cls-9" d="M231.37,87.1V83h1.17a1.58,1.58,0,0,1,.71.14,1,1,0,0,1,.46.41,1.17,1.17,0,0,1,.17.64,1.29,1.29,0,0,1-.13.57,1.15,1.15,0,0,1-.37.42,1.49,1.49,0,0,1-.56.21l1.36,1.73h-.64l-1.28-1.68h-.38V87.1Zm.51-2.11h.52a1.29,1.29,0,0,0,.51-.1.72.72,0,0,0,.44-.71.7.7,0,0,0-.25-.58,1.06,1.06,0,0,0-.7-.21h-.52Z"/><path class="cls-9" d="M234.51,87.1V83h1a1.54,1.54,0,0,1,.94.26,1,1,0,0,1,.33.78.93.93,0,0,1-.57.92,1.08,1.08,0,0,1,.69.34,1,1,0,0,1,.25.7,1.14,1.14,0,0,1-.16.6,1.07,1.07,0,0,1-.45.39,1.68,1.68,0,0,1-.7.13Zm.5-2.32h.36a1.08,1.08,0,0,0,.66-.18.66.66,0,0,0,.23-.53.64.64,0,0,0-.23-.52,1.11,1.11,0,0,0-.66-.17H235Zm0,1.92h.64a1.13,1.13,0,0,0,.69-.19.66.66,0,0,0,.24-.54.66.66,0,0,0-.24-.55,1,1,0,0,0-.69-.2H235Z"/><path class="cls-9" d="M239.52,87.18a2,2,0,0,1-.81-.16,2.18,2.18,0,0,1-.66-.46,2.37,2.37,0,0,1-.45-.68,2.13,2.13,0,0,1-.16-.84,2,2,0,0,1,.16-.83,2.12,2.12,0,0,1,.45-.68,2,2,0,0,1,.66-.46,2,2,0,0,1,1.62,0,2,2,0,0,1,.66.46,2.12,2.12,0,0,1,.45.68,2,2,0,0,1,.16.83,2.13,2.13,0,0,1-.16.84,2.37,2.37,0,0,1-.45.68,2.18,2.18,0,0,1-.66.46A2,2,0,0,1,239.52,87.18Zm0-.49a1.46,1.46,0,0,0,.6-.12,1.57,1.57,0,0,0,.49-.35,1.69,1.69,0,0,0,.33-.53,2,2,0,0,0,0-1.3,1.54,1.54,0,0,0-.33-.52,1.42,1.42,0,0,0-.49-.35,1.45,1.45,0,0,0-1.2,0,1.42,1.42,0,0,0-.49.35,1.54,1.54,0,0,0-.33.52,2,2,0,0,0,0,1.3,1.69,1.69,0,0,0,.33.53,1.57,1.57,0,0,0,.49.35A1.46,1.46,0,0,0,239.52,86.69Z"/><path class="cls-9" d="M243,87.1V83.43h-1.19V83h2.9v.45h-1.2V87.1Z"/><path class="cls-9" d="M211.72,93.18a1.82,1.82,0,0,1-.55-.08,1.67,1.67,0,0,1-.42-.22,1.85,1.85,0,0,1-.29-.24l-.16-.19.28-.4.15.18a2.61,2.61,0,0,0,.24.22,1.77,1.77,0,0,0,.33.19,1.18,1.18,0,0,0,.43.07,1.12,1.12,0,0,0,.42-.08.62.62,0,0,0,.29-.24.6.6,0,0,0,.11-.39.58.58,0,0,0-.08-.33.63.63,0,0,0-.22-.24,1.69,1.69,0,0,0-.33-.19l-.41-.16-.32-.15a1.42,1.42,0,0,1-.29-.21.82.82,0,0,1-.3-.68,1,1,0,0,1,.09-.43,1.07,1.07,0,0,1,.63-.62,1.26,1.26,0,0,1,.49-.09,1.33,1.33,0,0,1,.45.08,1.5,1.5,0,0,1,.38.19,1.28,1.28,0,0,1,.27.24l-.24.37a.81.81,0,0,0-.21-.2,1.15,1.15,0,0,0-.29-.16,1,1,0,0,0-.36-.06.81.81,0,0,0-.39.1.67.67,0,0,0-.25.25.72.72,0,0,0-.08.32.57.57,0,0,0,.06.27.73.73,0,0,0,.17.18l.25.13.27.11.49.21a1.8,1.8,0,0,1,.4.25,1.09,1.09,0,0,1,.27.33,1.17,1.17,0,0,1,.1.48,1.08,1.08,0,0,1-.67,1.05A1.76,1.76,0,0,1,211.72,93.18Z"/><path class="cls-9" d="M215.25,93.18a1.45,1.45,0,0,1-1.1-.39,1.66,1.66,0,0,1-.37-1.16V89h.51V91.5a1.37,1.37,0,0,0,.24.89.84.84,0,0,0,.72.29.87.87,0,0,0,.73-.29,1.37,1.37,0,0,0,.23-.89V89h.51v2.65a1.62,1.62,0,0,1-.37,1.16A1.43,1.43,0,0,1,215.25,93.18Z"/><path class="cls-9" d="M217.69,93.1V89h1.17a1.54,1.54,0,0,1,.7.14,1,1,0,0,1,.47.4,1.21,1.21,0,0,1,.17.65,1.26,1.26,0,0,1-.17.65,1.09,1.09,0,0,1-.47.43,1.54,1.54,0,0,1-.7.15h-.66v1.7ZM218.2,91h.52a1.31,1.31,0,0,0,.5-.1.73.73,0,0,0,.33-.27.76.76,0,0,0-.33-1.14,1.31,1.31,0,0,0-.5-.09h-.52Z"/><path class="cls-9" d="M220.9,93.1V89h1.17a1.54,1.54,0,0,1,.7.14,1,1,0,0,1,.47.4,1.21,1.21,0,0,1,.16.65,1.25,1.25,0,0,1-.16.65,1.09,1.09,0,0,1-.47.43,1.54,1.54,0,0,1-.7.15h-.67v1.7Zm.5-2.11h.53a1.22,1.22,0,0,0,.49-.1.76.76,0,0,0,.34-.27.87.87,0,0,0,0-.88.82.82,0,0,0-.34-.26,1.22,1.22,0,0,0-.49-.09h-.53Z"/><path class="cls-9" d="M225.92,93.18a2,2,0,0,1-.81-.16,2.1,2.1,0,0,1-.67-.46,2.17,2.17,0,0,1-.6-1.52,2,2,0,0,1,.16-.83,2.07,2.07,0,0,1,1.11-1.14,2,2,0,0,1,.81-.17,2.06,2.06,0,0,1,.81.17,2,2,0,0,1,.66.46,2,2,0,0,1,.44.68A2.05,2.05,0,0,1,228,91a2.24,2.24,0,0,1-.61,1.52,2.18,2.18,0,0,1-.66.46A2.05,2.05,0,0,1,225.92,93.18Zm0-.49a1.53,1.53,0,0,0,.6-.12,1.57,1.57,0,0,0,.49-.35,1.67,1.67,0,0,0,.32-.53,1.82,1.82,0,0,0,0-1.3,1.52,1.52,0,0,0-.32-.52,1.42,1.42,0,0,0-.49-.35,1.47,1.47,0,0,0-1.21,0,1.53,1.53,0,0,0-.81.87,1.82,1.82,0,0,0,0,1.3,1.67,1.67,0,0,0,.32.53,1.69,1.69,0,0,0,.49.35A1.54,1.54,0,0,0,225.92,92.69Z"/><path class="cls-9" d="M228.76,93.1V89h1.17a1.58,1.58,0,0,1,.71.14,1,1,0,0,1,.46.41,1.17,1.17,0,0,1,.17.64,1.29,1.29,0,0,1-.13.57,1.15,1.15,0,0,1-.37.42,1.49,1.49,0,0,1-.56.21l1.37,1.73h-.65l-1.28-1.68h-.38V93.1Zm.51-2.11h.52a1.29,1.29,0,0,0,.51-.1.72.72,0,0,0,.44-.71.7.7,0,0,0-.25-.58,1.06,1.06,0,0,0-.7-.21h-.52Z"/><path class="cls-9" d="M232.67,93.1V89.43h-1.2V89h2.9v.45h-1.2V93.1Z"/><path class="cls-7" d="M62,162v62.52h77.5c6.62,6.32,16.13,15.83,16.13,15.83l7-15.83h10.95V162Z"/><path class="cls-10" d="M209.74,158.43v48.44a7,7,0,0,1-7,7H155l-7,15.83s-9.51-9.51-16.13-15.83H29.08a7,7,0,0,1-7-7V158.43a7,7,0,0,1,7-7H202.7A7,7,0,0,1,209.74,158.43Z"/><path class="cls-9" d="M51.25,180.57l.49-4.12h.54l1.15,3,1.14-3h.54l.5,4.12H55.1l-.39-3.2-1.11,3h-.34l-1.11-3-.4,3.2Z"/><path class="cls-9" d="M56.37,180.57v-4.12h.51v4.12Z"/><path class="cls-9" d="M57.86,180.57v-4.12h.5v1.83l1.75-1.83h.64l-1.93,2,2.15,2.1h-.71l-1.9-1.83v1.83Z"/><path class="cls-9" d="M61.43,180.57v-4.12h2.14v.44H61.93v1.39h1.58v.44H61.93v1.4h1.64v.45Z"/><rect class="cls-9" x="70.58" y="176.53" width="115.44" height="4.18" transform="translate(256.59 357.23) rotate(-180)"/><rect class="cls-9" x="70.58" y="184.49" width="115.44" height="4.18" transform="translate(256.59 373.16) rotate(-180)"/><rect class="cls-9" x="70.58" y="192.46" width="115.44" height="4.18" transform="translate(256.59 389.1) rotate(-180)"/><rect class="cls-9" x="70.58" y="200.43" width="88.41" height="4.18" transform="translate(229.57 405.04) rotate(-180)"/></g></svg>