<?xml version="1.0" encoding="utf-8"?>
<!-- Generator: Adobe Illustrator 24.1.0, SVG Export Plug-In . SVG Version: 6.00 Build 0)  -->
<svg version="1.1" id="Layer_1" xmlns="http://www.w3.org/2000/svg" xmlns:xlink="http://www.w3.org/1999/xlink" x="0px" y="0px"
	 viewBox="0 0 1708 1708" style="enable-background:new 0 0 1708 1708;" xml:space="preserve">
<style type="text/css">
	.st0{fill:#010440;}
</style>
<g id="surface1">
	<path class="st0" d="M225.2,305.2c5.3,1.3,10.2,4.1,14.1,8l434.9,434.9l78.7-78.7L318,234.5c-3.9-3.9-6.7-8.8-8-14.2l-27.4-109.1
		L101.2,7.5L12.3,96.4L116.1,278L225.2,305.2z"/>
	<path class="st0" d="M611.9,1297.2L1302,607.1c7.6-7.6,18.5-10.6,28.9-8c90.9,23.3,187.4,3.1,261.3-54.6
		c74-57.7,117-146.4,116.5-240.2c0-5.7-0.2-11.5-0.5-17.3l-160.5,160.5c-8.1,8.1-20.2,11-31.1,7.3L1334,394
		c-9.1-3-16.2-10.1-19.3-19.2l-60.8-182.6c-3.7-10.9-0.8-23,7.3-31.1L1421.7,0.6c-96.7-6-190.4,34.6-252.1,109.2s-84,174.3-60,268.1
		c2.6,10.4-0.4,21.4-8,28.9l-690.1,690.1c-7.6,7.5-18.5,10.6-28.9,8c-24-6.2-48.7-9.4-73.5-9.5c-131-0.9-248.1,81.7-291.3,205.5
		c-43.1,123.8-2.7,261.2,100.5,342s246.4,86.9,356.1,15.3c109.8-71.6,161.8-205.1,129.5-332.1
		C601.3,1315.8,604.4,1304.8,611.9,1297.2z M383.2,1521.4H235.1l-73-121.7l73-121.7h148.1l73,121.7L383.2,1521.4z M476.5,1122.1
		l669.4-669.4l43,43l-669.4,669.4L476.5,1122.1z M537.3,1187.8l669.4-669.4l43,43l-669.4,669.4L537.3,1187.8z"/>
	<path class="st0" d="M1459.2,1692.1c67.8,25.5,144.2,9,195.4-42.2c51.2-51.2,67.7-127.6,42.2-195.4L1459.2,1692.1z"/>
	<path class="st0" d="M1665.2,1400.2L1405,1660.4c-4-3.4-7.9-6.8-11.6-10.5l-341.5-341.6c31.6-37.7,29.2-93.4-5.7-128.2
		c-34.8-34.8-90.5-37.2-128.2-5.5l-48.7-48.7l261.2-261.3L1179,913c-31.6,37.7-29.2,93.4,5.7,128.2c34.8,34.8,90.5,37.2,128.2,5.5
		l341.7,341.9C1658.3,1392.3,1661.8,1396.2,1665.2,1400.2z"/>
	
		<rect x="1313.2" y="1123.7" transform="matrix(0.7072 -0.707 0.707 0.7072 -553.1983 1341.9613)" class="st0" width="60.8" height="430.3"/>
</g>
</svg>
