<?xml version="1.0" encoding="utf-8"?>
<!-- Generator: Adobe Illustrator 24.1.0, SVG Export Plug-In . SVG Version: 6.00 Build 0)  -->
<svg version="1.1" id="Layer_2" xmlns="http://www.w3.org/2000/svg" xmlns:xlink="http://www.w3.org/1999/xlink" x="0px" y="0px"
	 viewBox="0 0 288 288" style="enable-background:new 0 0 288 288;" xml:space="preserve">
<style type="text/css">
	.st0{fill:#231F20;}
</style>
<path class="st0" d="M273.1,37.3c0,0-32.2,16.1-34.7,12.9c-22.1-27.6-102.5-29.2-96.5,50.9c-15.4-0.6-71.6-4.5-117-57.8
	c0,0-23.8,38.8,16.8,74.6c0,0-14.6,1.3-23.7-7.2c0,0-6,43.6,45.3,56.3c0,0-5.9,3.9-25.9,1.1c0,0,8.6,36.4,52.3,39.1
	c0,0-36.9,30.9-82.4,23.9c0,0,226.5,109.7,246.9-142.9c0,0,20.7-15.6,26.7-28.8c0,0-21.2,9-31.1,8.3
	C249.7,67.8,273.1,50.1,273.1,37.3z"/>
</svg>
