<svg xmlns="http://www.w3.org/2000/svg" xmlns:xlink="http://www.w3.org/1999/xlink" width="78" height="78" viewBox="0 0 78 78">
  <defs>
    <clipPath id="clip-path">
      <rect id="Rectangle_144" data-name="Rectangle 144" width="78" height="78" transform="translate(1712 4795)" fill="#fff" stroke="#707070" stroke-width="1"/>
    </clipPath>
  </defs>
  <g id="Mask_Group_38" data-name="Mask Group 38" transform="translate(-1712 -4795)" clip-path="url(#clip-path)">
    <path id="twitter" d="M77.857,10.634s-9.18,4.59-9.893,3.678c-6.3-7.868-29.221-8.325-27.511,14.511A45.811,45.811,0,0,1,7.1,12.344S.314,23.406,11.888,33.612c0,0-4.162.371-6.757-2.053,0,0-1.711,12.43,12.914,16.05,0,0-1.682,1.112-7.384.314,0,0,2.452,10.377,14.91,11.147,0,0-10.52,8.809-23.491,6.814,0,0,64.572,31.274,70.388-40.739,0,0,5.9-4.447,7.612-8.211,0,0-6.044,2.566-8.866,2.366C71.186,19.329,77.857,14.283,77.857,10.634Z" transform="translate(1709.919 4792.968)" fill="#021e73"/>
  </g>
</svg>
